<svg version="1.0" xmlns="http://www.w3.org/2000/svg"
 width="2000.000000pt" height="2000.000000pt" viewBox="0 0 2000.000000 2000.000000"
 preserveAspectRatio="xMidYMid meet">

<g transform="translate(0.000000,2000.000000) scale(0.100000,-0.100000)"
fill="#000000" stroke="none">
<path d="M2660 19745 c0 -4 71 -129 283 -497 53 -91 179 -303 280 -470 204
-337 300 -503 567 -977 100 -178 244 -427 319 -555 76 -127 193 -332 261 -456
145 -266 311 -556 630 -1100 164 -280 365 -628 650 -1125 325 -567 596 -1031
810 -1390 325 -544 353 -591 700 -1210 234 -417 422 -744 588 -1025 187 -315
437 -750 522 -910 37 -69 84 -152 104 -185 20 -33 36 -64 36 -70 0 -21 -186
-113 -420 -208 -840 -340 -1482 -497 -2267 -553 l-93 -6 0 1695 0 1696 -66
113 c-36 62 -105 176 -154 253 -48 77 -154 257 -235 400 -81 143 -203 352
-270 465 -173 289 -270 458 -530 920 -285 506 -421 743 -595 1035 -127 214
-201 341 -500 870 -62 110 -155 271 -207 358 -51 87 -113 197 -137 245 -24 48
-90 166 -146 262 -57 96 -109 186 -116 200 -12 21 -14 -1379 -14 -8627 l0
-8653 1485 0 1485 0 2 2898 3 2897 195 12 c823 49 1811 239 2485 477 55 19
166 55 246 80 316 98 810 306 1079 455 58 32 140 73 183 91 67 28 81 30 92 19
7 -8 249 -423 538 -924 494 -858 1262 -2189 1422 -2465 40 -69 292 -505 560
-970 268 -465 691 -1196 938 -1625 248 -429 471 -816 497 -860 l46 -80 1717
-3 c944 -1 1717 0 1717 3 0 2 -24 46 -53 97 -269 466 -357 617 -546 931 -120
199 -300 508 -401 687 -218 386 -340 600 -465 810 -50 85 -118 205 -150 265
-85 160 -161 294 -415 730 -125 215 -378 651 -562 970 -185 319 -397 684 -473
810 -75 127 -182 313 -237 415 -91 168 -159 287 -358 630 -37 63 -119 205
-182 315 -63 110 -209 362 -323 560 -237 411 -328 568 -430 745 -253 440 -356
616 -397 680 -19 30 -50 83 -67 118 l-32 63 23 32 c12 18 42 55 66 82 97 109
316 415 444 620 264 423 434 782 598 1260 136 399 210 697 250 1015 11 91 27
208 35 260 34 230 42 721 14 865 -6 28 -14 138 -19 245 -11 237 -30 350 -120
715 -121 493 -207 745 -380 1114 -630 1348 -1622 2393 -3045 3208 -448 257
-987 514 -1397 667 -437 162 -684 233 -1303 375 -466 106 -518 115 -1092 191
l-231 30 -1721 0 c-947 0 -1721 -2 -1721 -5z m5605 -3616 c158 -60 301 -143
680 -395 587 -390 1025 -823 1331 -1317 69 -111 180 -322 227 -433 85 -198
193 -570 216 -744 29 -218 22 -529 -18 -772 -18 -108 -119 -468 -131 -468 -3
0 -53 82 -111 183 -1139 1972 -2282 3954 -2286 3964 -7 19 3 17 92 -18z"/>
<path d="M14380 13682 l0 -6068 268 -464 c747 -1293 1021 -1767 1482 -2565
277 -478 663 -1147 858 -1485 195 -338 356 -617 358 -619 2 -2 4 3882 4 8632
l0 8637 -1485 0 -1485 0 0 -6068z"/>
<path d="M2660 18641 l0 -352 27 -47 c15 -26 61 -101 104 -167 42 -66 152
-253 244 -415 92 -162 222 -387 290 -500 171 -286 271 -460 505 -875 362 -643
615 -1083 745 -1295 81 -131 176 -296 375 -650 101 -179 224 -395 275 -480 50
-85 119 -207 152 -270 70 -132 230 -410 244 -425 5 -5 9 125 9 346 l0 355 -66
115 c-36 62 -96 161 -133 219 -38 58 -144 238 -236 400 -92 162 -229 399 -305
525 -191 320 -283 480 -635 1105 -339 601 -499 879 -705 1225 -76 127 -223
381 -327 565 -105 184 -218 381 -251 438 -34 56 -78 135 -98 175 -54 107 -185
335 -201 348 -11 10 -13 -47 -13 -340z"/>
<path d="M14380 6486 l0 -367 57 -97 c31 -53 78 -129 104 -168 26 -38 130
-216 232 -395 101 -178 223 -388 270 -466 130 -216 322 -548 547 -948 354
-628 545 -961 735 -1275 49 -80 192 -329 320 -555 128 -225 276 -483 329 -573
53 -90 115 -200 137 -245 23 -45 80 -149 128 -230 47 -82 92 -158 98 -170 10
-18 13 50 13 351 l0 373 -57 97 c-31 53 -78 129 -104 168 -26 38 -113 187
-194 330 -82 142 -235 405 -340 584 -106 179 -300 514 -430 745 -383 679 -598
1052 -770 1340 -89 149 -262 448 -385 664 -122 217 -264 466 -316 553 -52 88
-114 198 -138 246 -46 92 -211 380 -227 397 -5 5 -9 -137 -9 -359z"/>
</g>
</svg>
